<?xml version="1.0" encoding="UTF-8" standalone="no"?>
<svg
   xmlns:osb="http://www.openswatchbook.org/uri/2009/osb"
   xmlns:dc="http://purl.org/dc/elements/1.1/"
   xmlns:cc="http://creativecommons.org/ns#"
   xmlns:rdf="http://www.w3.org/1999/02/22-rdf-syntax-ns#"
   xmlns:svg="http://www.w3.org/2000/svg"
   xmlns="http://www.w3.org/2000/svg"
   xmlns:sodipodi="http://sodipodi.sourceforge.net/DTD/sodipodi-0.dtd"
   xmlns:inkscape="http://www.inkscape.org/namespaces/inkscape"
   version="1.1"
   id="svg833"
   xml:space="preserve"
   width="95.988503"
   height="107.21866"
   viewBox="0 0 95.988501 107.21866"
   sodipodi:docname="favicon.svg"
   inkscape:version="1.0.1 (3bc2e813f5, 2020-09-07)"
   inkscape:export-filename="C:\Users\Hasitha\Downloads\favicon.png"
   inkscape:export-xdpi="88.853333"
   inkscape:export-ydpi="88.853333"><metadata
     id="metadata839"><rdf:RDF><cc:Work
         rdf:about=""><dc:format>image/svg+xml</dc:format><dc:type
           rdf:resource="http://purl.org/dc/dcmitype/StillImage" /><dc:title></dc:title></cc:Work></rdf:RDF></metadata><defs
     id="defs837"><linearGradient
       inkscape:collect="always"
       id="linearGradient5094"
       osb:paint="gradient"><stop
         style="stop-color:#b3b3b3;stop-opacity:1;"
         offset="0"
         id="stop5090" /><stop
         style="stop-color:#b3b3b3;stop-opacity:0;"
         offset="1"
         id="stop5092" /></linearGradient><clipPath
       clipPathUnits="userSpaceOnUse"
       id="clipPath2871"><path
         d="M 25.5425,182.899 H 44.9243 V 168.592 H 25.5425 Z"
         id="path2869" /></clipPath></defs><sodipodi:namedview
     pagecolor="#ffffff"
     bordercolor="#666666"
     borderopacity="1"
     objecttolerance="10"
     gridtolerance="10"
     guidetolerance="10"
     inkscape:pageopacity="0"
     inkscape:pageshadow="2"
     inkscape:window-width="1920"
     inkscape:window-height="1013"
     id="namedview835"
     showgrid="false"
     inkscape:zoom="7.4190766"
     inkscape:cx="48.01921"
     inkscape:cy="53.891026"
     inkscape:window-x="-9"
     inkscape:window-y="-9"
     inkscape:window-maximized="1"
     inkscape:current-layer="g841"
     inkscape:pagecheckerboard="false"
     fit-margin-top="0"
     fit-margin-left="0"
     fit-margin-right="0"
     fit-margin-bottom="0" /><g
     id="g841"
     inkscape:groupmode="layer"
     inkscape:label="Idea (Light bulb) - 250x250"
     transform="matrix(1.3333333,0,0,-1.3333333,-96.32358,271.43569)"><g
       id="g2837"
       transform="translate(119.273,133.88778)"
       inkscape:export-xdpi="251.78"
       inkscape:export-ydpi="251.78"
       style="fill:#666666"><path
         d="m 0,0 c 0,-5.924 -4.8,-10.725 -10.724,-10.725 -5.923,0 -10.726,4.801 -10.726,10.725 v 8.373 c 0,5.924 4.803,10.725 10.726,10.725 C -4.8,19.098 0,14.297 0,8.373 Z"
         style="fill:#666666;fill-opacity:1;fill-rule:evenodd;stroke:none"
         id="path2839" /></g><g
       id="g2841"
       transform="translate(96.841395,131.98058)"
       inkscape:export-xdpi="251.78"
       inkscape:export-ydpi="251.78"
       style="fill:#666666"><path
         d="m 0,0 c 7.064,-3.971 16.198,-3.438 23.425,-0.385 0.988,0.417 1.186,1.857 0.701,2.687 -0.593,1.011 -1.703,1.114 -2.688,0.7 C 17.104,1.169 12.279,0.639 7.655,1.513 6.148,1.798 4.669,2.236 3.241,2.796 2.912,2.924 3.383,2.728 2.926,2.928 2.739,3.012 2.552,3.1 2.367,3.188 2.231,3.256 2.095,3.323 1.964,3.397 -0.244,4.64 -2.208,1.241 0,0"
         style="fill:#666666;fill-opacity:1;fill-rule:nonzero;stroke:none"
         id="path2843" /></g><g
       id="g2845"
       transform="translate(96.452195,128.19248)"
       inkscape:export-xdpi="251.78"
       inkscape:export-ydpi="251.78"
       style="fill:#666666"><path
         d="M 0,0 C 7.062,-3.97 16.196,-3.438 23.422,-0.383 24.41,0.034 24.609,1.474 24.124,2.302 23.53,3.314 22.42,3.418 21.438,3.002 17.101,1.17 12.276,0.641 7.655,1.515 6.145,1.8 4.667,2.238 3.239,2.798 2.91,2.925 3.381,2.728 2.924,2.93 2.736,3.012 2.552,3.1 2.365,3.189 2.231,3.256 2.092,3.324 1.961,3.399 -0.244,4.64 -2.208,1.243 0,0"
         style="fill:#666666;fill-opacity:1;fill-rule:nonzero;stroke:none"
         id="path2847" /></g><g
       id="g2849"
       transform="translate(127.754,154.64068)"
       inkscape:export-xdpi="877.71002"
       inkscape:export-ydpi="877.71002"><path
         d="M 0,0 V 0 C 1.876,3.267 2.867,7.096 2.657,11.142 2.08,22.311 -7.411,30.899 -18.538,30.324 -29.667,29.75 -38.219,20.229 -37.643,9.06 c 0.191,-3.645 1.326,-7.014 3.16,-9.879 1.121,-1.867 5.108,-9.038 4.578,-15.982 0,0 9.616,-8.342 20.498,-1.235 0,0 3.645,8.736 8.51,16.612 0.315,0.459 0.613,0.931 0.894,1.416 C -0.003,-0.005 0,-0.003 0,0"
         style="fill:#f2d15d;fill-opacity:1;fill-rule:evenodd;stroke:none"
         id="path2851" /></g><g
       id="g2853"
       transform="translate(108.5665,134.33308)"
       inkscape:export-xdpi="877.71002"
       inkscape:export-ydpi="877.71002"><path
         d="m 0,0 c -0.255,0.331 -0.077,1.134 -0.054,1.533 0.043,0.723 0.046,1.449 0.074,2.173 0.06,1.478 0.099,2.957 0.241,4.429 0.202,2.103 0.406,4.272 -0.082,6.352 -0.426,1.81 -2.24,3.521 -4.184,2.49 -2.319,-1.231 -2.325,-4.355 -1.002,-6.294 0.866,-1.271 2.2,-1.349 3.599,-1.414 1.862,-0.086 3.596,-0.085 5.455,0.125 2.339,0.261 6.407,1.68 5.036,4.828 -1.15,2.633 -5.019,2.554 -6.636,0.404 C 1.592,13.488 1.51,12.105 1.507,10.729 1.504,8.555 1.436,6.359 1.289,4.189 1.192,2.782 1.09,1.396 1.221,-0.016 1.334,-1.264 3.295,-1.287 3.182,-0.029 2.935,2.655 3.31,5.438 3.412,8.128 3.491,10.213 2.804,14.731 6.245,14.247 6.857,14.162 7.314,13.699 7.369,13.082 7.422,12.461 6.52,12.074 6.088,11.854 5.049,11.324 3.71,11.315 2.577,11.205 c -1.348,-0.131 -2.622,-0.127 -3.971,0.026 -0.627,0.072 -1.288,-0.09 -1.822,0.357 -0.465,0.389 -0.729,1.14 -0.763,1.727 -0.077,1.385 1.444,2.892 2.131,1.103 0.545,-1.428 0.392,-3.138 0.29,-4.63 C -1.672,8.096 -1.828,6.416 -1.899,4.719 -1.95,3.565 -1.964,2.407 -2.032,1.255 -2.075,0.541 -2.16,-0.39 -1.694,-0.993 -0.931,-1.978 0.772,-1 0,0"
         style="fill:#ffffff;fill-opacity:1;fill-rule:nonzero;stroke:none"
         id="path2855" /></g><g
       id="g2857"
       transform="translate(107.5592,133.73148)"
       inkscape:export-xdpi="251.78"
       inkscape:export-ydpi="251.78"
       style="fill:#666666"><path
         d="m 0,0 c -0.256,0.329 -0.077,1.133 -0.054,1.531 0.042,0.723 0.045,1.449 0.074,2.173 0.059,1.478 0.099,2.958 0.241,4.431 0.201,2.103 0.406,4.27 -0.082,6.35 -0.426,1.812 -2.24,3.523 -4.184,2.492 -2.319,-1.233 -2.325,-4.355 -1.002,-6.296 0.865,-1.27 2.197,-1.348 3.599,-1.413 1.862,-0.085 3.594,-0.084 5.455,0.125 2.336,0.262 6.407,1.679 5.036,4.829 -1.15,2.633 -5.021,2.552 -6.637,0.404 C 1.592,13.486 1.51,12.104 1.507,10.728 1.504,8.554 1.436,6.359 1.289,4.188 1.192,2.78 1.09,1.394 1.217,-0.016 c 0.117,-1.25 2.081,-1.272 1.965,-0.013 -0.247,2.684 0.127,5.467 0.23,8.157 0.079,2.083 -0.611,6.603 2.832,6.119 0.613,-0.086 1.07,-0.548 1.124,-1.166 0.054,-0.622 -0.848,-1.008 -1.28,-1.227 -1.039,-0.53 -2.379,-0.541 -3.511,-0.65 -1.348,-0.13 -2.623,-0.127 -3.971,0.026 -0.627,0.071 -1.289,-0.089 -1.822,0.356 -0.466,0.39 -0.729,1.142 -0.763,1.727 -0.077,1.385 1.444,2.893 2.131,1.103 0.545,-1.426 0.389,-3.138 0.289,-4.628 C -1.672,8.095 -1.828,6.416 -1.902,4.718 -1.95,3.563 -1.964,2.407 -2.033,1.253 -2.075,0.541 -2.16,-0.39 -1.692,-0.995 -0.931,-1.979 0.772,-1.002 0,0"
         style="fill:#666666;fill-opacity:1;fill-rule:nonzero;stroke:none"
         id="path2859" /></g><g
       id="g2861"
       transform="translate(96.841395,135.50588)"
       inkscape:export-xdpi="251.78"
       inkscape:export-ydpi="251.78"
       style="fill:#666666"><path
         d="m 0,0 c 7.064,-3.971 16.198,-3.438 23.425,-0.384 0.988,0.416 1.186,1.856 0.701,2.686 C 23.533,3.313 22.423,3.416 21.438,3.001 17.104,1.168 12.279,0.639 7.655,1.513 6.148,1.798 4.669,2.236 3.241,2.796 2.912,2.925 3.383,2.728 2.926,2.928 2.739,3.012 2.552,3.1 2.367,3.188 2.231,3.255 2.095,3.323 1.964,3.397 -0.244,4.639 -2.208,1.241 0,0"
         style="fill:#666666;fill-opacity:1;fill-rule:nonzero;stroke:none"
         id="path2863" /></g><g
       id="g2865"
       transform="translate(70.228095,-1.8007204)"
       inkscape:export-xdpi="877.71002"
       inkscape:export-ydpi="877.71002"><g
         id="g2867" /><g
         id="g2879"><g
           clip-path="url(#clipPath2871)"
           opacity="0.380005"
           id="g2877"><g
             transform="translate(41.0151,177.0049)"
             id="g2875"><path
               d="m 0,0 c -1.439,-0.261 -2.748,-0.915 -4.056,-1.438 -1.178,-0.654 -1.962,-1.571 -2.878,-2.486 -1.437,-1.439 -3.4,-4.055 -5.492,-4.446 -1.658,-0.311 -2.802,1.108 -3.001,2.607 -0.062,0.485 -0.076,1.095 0.057,1.571 0.207,0.729 0.664,1.401 1.15,1.971 0.9,1.052 2.009,1.886 3.085,2.746 2.989,2.39 6.781,4.91 10.689,5.349 C 1.189,6.057 3.048,5.02 3.698,3.525 4.342,2.042 3.429,1.152 2.092,0.685 1.402,0.44 0.698,0.214 0,0"
               style="fill:#ffffff;fill-opacity:1;fill-rule:evenodd;stroke:none"
               id="path2873" /></g></g></g></g><g
       id="g2881"
       transform="translate(113.3692,193.13288)"
       inkscape:export-xdpi="877.71002"
       inkscape:export-ydpi="877.71002"><path
         d="M 0,0 C 0.028,2.677 0.474,5.173 1.487,7.655 1.944,8.769 0.999,10.071 -0.054,10.361 -1.317,10.707 -2.308,9.927 -2.759,8.818 -3.906,6.01 -4.371,3.056 -4.405,0.032 -4.434,-2.813 -0.029,-2.836 0,0"
         style="fill:#f2d15d;fill-opacity:1;fill-rule:nonzero;stroke:none"
         id="path2883" /></g><g
       id="g2885"
       transform="translate(134.0494,179.27838)"
       inkscape:export-xdpi="877.71002"
       inkscape:export-ydpi="877.71002"><path
         d="M 0,0 C 2.963,0.798 5.651,2.335 8.611,3.133 11.353,3.87 10.215,8.124 7.473,7.386 4.51,6.588 1.825,5.051 -1.138,4.254 -3.88,3.516 -2.742,-0.737 0,0"
         style="fill:#f2d15d;fill-opacity:1;fill-rule:nonzero;stroke:none"
         id="path2887" /></g><g
       id="g2889"
       transform="translate(130.8873,152.06358)"
       inkscape:export-xdpi="877.71002"
       inkscape:export-ydpi="877.71002"><path
         d="m 0,0 c 0.36,-4.486 6.103,-5.166 9.449,-6.446 2.659,-1.018 3.789,3.244 1.164,4.248 C 9.367,-1.722 8.066,-1.389 6.807,-0.95 6.21,-0.741 5.643,-0.496 5.083,-0.202 4.644,0.031 4.357,0.549 4.405,-0.033 4.178,2.78 -0.23,2.826 0,0"
         style="fill:#f2d15d;fill-opacity:1;fill-rule:nonzero;stroke:none"
         id="path2891" /></g><g
       id="g2893"
       transform="translate(84.216395,154.72958)"
       inkscape:export-xdpi="877.71002"
       inkscape:export-ydpi="877.71002"><path
         d="m 0,0 c -3.295,-1.616 -6.741,-2.872 -9.455,-5.439 -2.06,-1.954 1.07,-5.051 3.131,-3.098 2.385,2.256 5.657,3.316 8.555,4.738 C 4.78,-2.549 2.538,1.245 0,0"
         style="fill:#f2d15d;fill-opacity:1;fill-rule:nonzero;stroke:none"
         id="path2895" /></g><g
       id="g2897"
       transform="translate(84.083095,176.26768)"
       inkscape:export-xdpi="877.71002"
       inkscape:export-ydpi="877.71002"><path
         d="m 0,0 c -3.19,1.416 -6.103,3.296 -9.696,3.427 -2.847,0.102 -2.861,-4.303 -0.031,-4.406 2.742,-0.098 5.089,-1.753 7.527,-2.836 C 0.369,-4.956 2.597,-1.154 0,0"
         style="fill:#f2d15d;fill-opacity:1;fill-rule:nonzero;stroke:none"
         id="path2899" /></g><g
       id="g2901"
       transform="translate(94.190495,188.04498)"
       inkscape:export-xdpi="877.71002"
       inkscape:export-ydpi="877.71002"><path
         d="m 0,0 c 0.25,2.205 -0.857,3.611 -1.871,5.437 -1.234,2.221 -1.983,4.595 -3.522,6.655 -1.677,2.245 -5.501,0.046 -3.801,-2.231 1.213,-1.62 2.027,-3.415 2.859,-5.249 0.649,-1.436 2.111,-2.974 1.93,-4.581 C -4.726,-2.793 -0.318,-2.789 0,0"
         style="fill:#f2d15d;fill-opacity:1;fill-rule:nonzero;stroke:none"
         id="path2903" /></g></g></svg>
